<svg width="101" height="100" viewBox="0 0 101 100" fill="none" xmlns="http://www.w3.org/2000/svg">
<rect x="0.560623" width="100" height="100" fill="black"/>
<path d="M35.2326 54.9997L32.6006 44.7797H33.9026L35.6386 51.7237C35.76 52.2091 35.8626 52.6617 35.9466 53.0817C36.0306 53.4924 36.0913 53.8051 36.1286 54.0197C36.166 53.8051 36.222 53.4924 36.2966 53.0817C36.3806 52.6617 36.4833 52.2091 36.6046 51.7237L38.3266 44.7797H39.6006L36.9546 54.9997H35.2326ZM44.4952 55.1117C43.8792 55.1117 43.3472 54.9951 42.8992 54.7617C42.4512 54.5284 42.1012 54.1924 41.8492 53.7537C41.6065 53.3057 41.4852 52.7784 41.4852 52.1717V50.1277C41.4852 49.5117 41.6065 48.9844 41.8492 48.5457C42.1012 48.1071 42.4512 47.7711 42.8992 47.5377C43.3472 47.3044 43.8792 47.1877 44.4952 47.1877C45.1112 47.1877 45.6432 47.3044 46.0912 47.5377C46.5392 47.7711 46.8845 48.1071 47.1272 48.5457C47.3792 48.9844 47.5052 49.5071 47.5052 50.1137V52.1717C47.5052 52.7784 47.3792 53.3057 47.1272 53.7537C46.8845 54.1924 46.5392 54.5284 46.0912 54.7617C45.6432 54.9951 45.1112 55.1117 44.4952 55.1117ZM44.4952 53.9917C45.0458 53.9917 45.4752 53.8377 45.7832 53.5297C46.0912 53.2217 46.2452 52.7691 46.2452 52.1717V50.1277C46.2452 49.5304 46.0912 49.0777 45.7832 48.7697C45.4752 48.4617 45.0458 48.3077 44.4952 48.3077C43.9538 48.3077 43.5245 48.4617 43.2072 48.7697C42.8992 49.0777 42.7452 49.5304 42.7452 50.1277V52.1717C42.7452 52.7691 42.8992 53.2217 43.2072 53.5297C43.5245 53.8377 43.9538 53.9917 44.4952 53.9917ZM51.1817 57.5197L52.3157 54.5237L49.4597 47.2997H50.8597L52.6517 52.0597C52.717 52.2184 52.7777 52.4097 52.8337 52.6337C52.8897 52.8484 52.9363 53.0304 52.9737 53.1797C53.011 53.0304 53.0577 52.8484 53.1137 52.6337C53.1697 52.4097 53.2257 52.2184 53.2817 52.0597L54.9617 47.2997H56.3197L52.5257 57.5197H51.1817ZM60.6122 55.1397C59.8002 55.1397 59.1609 54.9344 58.6942 54.5237C58.2275 54.1037 57.9942 53.5391 57.9942 52.8297C57.9942 52.1111 58.2275 51.5464 58.6942 51.1357C59.1609 50.7251 59.7909 50.5197 60.5842 50.5197H62.9642V49.7497C62.9642 49.2737 62.8195 48.9097 62.5302 48.6577C62.2502 48.3964 61.8489 48.2657 61.3262 48.2657C60.8689 48.2657 60.4862 48.3637 60.1782 48.5597C59.8702 48.7464 59.6929 49.0031 59.6462 49.3297H58.3862C58.4702 48.6671 58.7829 48.1397 59.3242 47.7477C59.8655 47.3557 60.5422 47.1597 61.3542 47.1597C62.2409 47.1597 62.9409 47.3884 63.4542 47.8457C63.9675 48.3031 64.2242 48.9237 64.2242 49.7077V54.9997H62.9922V53.5297H62.7822L62.9922 53.3197C62.9922 53.8797 62.7729 54.3231 62.3342 54.6497C61.9049 54.9764 61.3309 55.1397 60.6122 55.1397ZM60.9202 54.1457C61.5175 54.1457 62.0075 53.9964 62.3902 53.6977C62.7729 53.3991 62.9642 53.0164 62.9642 52.5497V51.4577H60.6122C60.1922 51.4577 59.8609 51.5744 59.6182 51.8077C59.3755 52.0411 59.2542 52.3584 59.2542 52.7597C59.2542 53.1891 59.3989 53.5297 59.6882 53.7817C59.9869 54.0244 60.3975 54.1457 60.9202 54.1457ZM67.7327 57.5197V56.3717H70.1827C70.5747 56.3717 70.8594 56.2831 71.0367 56.1057C71.2234 55.9284 71.3167 55.6531 71.3167 55.2797V54.2997L71.3447 52.8997H71.0927L71.3307 52.6897C71.3307 53.2497 71.1441 53.6931 70.7707 54.0197C70.3974 54.3464 69.8981 54.5097 69.2727 54.5097C68.4794 54.5097 67.8541 54.2531 67.3967 53.7397C66.9394 53.2171 66.7107 52.5171 66.7107 51.6397V50.0157C66.7107 49.1384 66.9394 48.4431 67.3967 47.9297C67.8541 47.4164 68.4794 47.1597 69.2727 47.1597C69.8981 47.1597 70.3974 47.3231 70.7707 47.6497C71.1441 47.9764 71.3307 48.4197 71.3307 48.9797L71.0927 48.7697H71.3307V47.2997H72.5767V55.2797C72.5767 55.9704 72.3621 56.5164 71.9327 56.9177C71.5127 57.3191 70.9247 57.5197 70.1687 57.5197H67.7327ZM69.6507 53.4177C70.1734 53.4177 70.5841 53.2544 70.8827 52.9277C71.1814 52.6011 71.3307 52.1484 71.3307 51.5697V50.0997C71.3307 49.5211 71.1814 49.0684 70.8827 48.7417C70.5841 48.4151 70.1734 48.2517 69.6507 48.2517C69.1187 48.2517 68.7034 48.4104 68.4047 48.7277C68.1154 49.0451 67.9707 49.5024 67.9707 50.0997V51.5697C67.9707 52.1671 68.1154 52.6244 68.4047 52.9417C68.7034 53.2591 69.1187 53.4177 69.6507 53.4177ZM78.0733 55.1397C77.4666 55.1397 76.9346 55.0184 76.4773 54.7757C76.0293 54.5331 75.6793 54.1924 75.4273 53.7537C75.1846 53.3057 75.0633 52.7877 75.0633 52.1997V50.0997C75.0633 49.5024 75.1846 48.9844 75.4273 48.5457C75.6793 48.1071 76.0293 47.7664 76.4773 47.5237C76.9346 47.2811 77.4666 47.1597 78.0733 47.1597C78.6799 47.1597 79.2073 47.2811 79.6553 47.5237C80.1126 47.7664 80.4626 48.1071 80.7053 48.5457C80.9573 48.9844 81.0833 49.5024 81.0833 50.0997V51.4577H76.2953V52.1997C76.2953 52.8064 76.4493 53.2731 76.7573 53.5997C77.0653 53.9171 77.5039 54.0757 78.0733 54.0757C78.5586 54.0757 78.9506 53.9917 79.2493 53.8237C79.5479 53.6464 79.7299 53.3851 79.7953 53.0397H81.0553C80.9713 53.6837 80.6539 54.1971 80.1033 54.5797C79.5619 54.9531 78.8853 55.1397 78.0733 55.1397ZM79.8513 50.6177V50.0997C79.8513 49.4931 79.6973 49.0264 79.3893 48.6997C79.0906 48.3731 78.6519 48.2097 78.0733 48.2097C77.5039 48.2097 77.0653 48.3731 76.7573 48.6997C76.4493 49.0264 76.2953 49.4931 76.2953 50.0997V50.5057H79.9493L79.8513 50.6177ZM83.8218 54.9997V47.2997H85.0538V48.7697H85.3478L84.9418 49.6797C84.9418 48.8491 85.1191 48.2237 85.4738 47.8037C85.8378 47.3744 86.3745 47.1597 87.0838 47.1597C87.8958 47.1597 88.5398 47.4164 89.0158 47.9297C89.5011 48.4337 89.7438 49.1197 89.7438 49.9877V50.4497H88.4838V50.0997C88.4838 49.4931 88.3345 49.0311 88.0358 48.7137C87.7465 48.3871 87.3311 48.2237 86.7898 48.2237C86.2578 48.2237 85.8378 48.3871 85.5298 48.7137C85.2311 49.0404 85.0818 49.5024 85.0818 50.0997V54.9997H83.8218Z" fill="white"/>
<path d="M21.9017 40.541L20.8798 55.4319L13.4343 51.1253L21.9017 40.541Z" fill="#D9D9D9"/>
<path d="M25.8569 41.6925L23.8964 57.1756L13.4285 51.1319L25.8569 41.6925Z" fill="white"/>
</svg>
