<svg width="101" height="100" viewBox="0 0 101 100" fill="none" xmlns="http://www.w3.org/2000/svg">
<rect x="0.0532122" width="100" height="100" fill="#0019FF"/>
<path d="M34.7252 54.9997L32.0932 44.7797H33.3952L35.1312 51.7237C35.2525 52.2091 35.3552 52.6617 35.4392 53.0817C35.5232 53.4924 35.5839 53.8051 35.6212 54.0197C35.6585 53.8051 35.7145 53.4924 35.7892 53.0817C35.8732 52.6617 35.9759 52.2091 36.0972 51.7237L37.8192 44.7797H39.0932L36.4472 54.9997H34.7252ZM43.9877 55.1117C43.3717 55.1117 42.8397 54.9951 42.3917 54.7617C41.9437 54.5284 41.5937 54.1924 41.3417 53.7537C41.0991 53.3057 40.9777 52.7784 40.9777 52.1717V50.1277C40.9777 49.5117 41.0991 48.9844 41.3417 48.5457C41.5937 48.1071 41.9437 47.7711 42.3917 47.5377C42.8397 47.3044 43.3717 47.1877 43.9877 47.1877C44.6037 47.1877 45.1357 47.3044 45.5837 47.5377C46.0317 47.7711 46.3771 48.1071 46.6197 48.5457C46.8717 48.9844 46.9977 49.5071 46.9977 50.1137V52.1717C46.9977 52.7784 46.8717 53.3057 46.6197 53.7537C46.3771 54.1924 46.0317 54.5284 45.5837 54.7617C45.1357 54.9951 44.6037 55.1117 43.9877 55.1117ZM43.9877 53.9917C44.5384 53.9917 44.9677 53.8377 45.2757 53.5297C45.5837 53.2217 45.7377 52.7691 45.7377 52.1717V50.1277C45.7377 49.5304 45.5837 49.0777 45.2757 48.7697C44.9677 48.4617 44.5384 48.3077 43.9877 48.3077C43.4464 48.3077 43.0171 48.4617 42.6997 48.7697C42.3917 49.0777 42.2377 49.5304 42.2377 50.1277V52.1717C42.2377 52.7691 42.3917 53.2217 42.6997 53.5297C43.0171 53.8377 43.4464 53.9917 43.9877 53.9917ZM50.6743 57.5197L51.8083 54.5237L48.9523 47.2997H50.3523L52.1443 52.0597C52.2096 52.2184 52.2703 52.4097 52.3263 52.6337C52.3823 52.8484 52.4289 53.0304 52.4663 53.1797C52.5036 53.0304 52.5503 52.8484 52.6063 52.6337C52.6623 52.4097 52.7183 52.2184 52.7743 52.0597L54.4543 47.2997H55.8123L52.0183 57.5197H50.6743ZM60.1048 55.1397C59.2928 55.1397 58.6535 54.9344 58.1868 54.5237C57.7201 54.1037 57.4868 53.5391 57.4868 52.8297C57.4868 52.1111 57.7201 51.5464 58.1868 51.1357C58.6535 50.7251 59.2835 50.5197 60.0768 50.5197H62.4568V49.7497C62.4568 49.2737 62.3121 48.9097 62.0228 48.6577C61.7428 48.3964 61.3415 48.2657 60.8188 48.2657C60.3615 48.2657 59.9788 48.3637 59.6708 48.5597C59.3628 48.7464 59.1855 49.0031 59.1388 49.3297H57.8788C57.9628 48.6671 58.2755 48.1397 58.8168 47.7477C59.3581 47.3557 60.0348 47.1597 60.8468 47.1597C61.7335 47.1597 62.4335 47.3884 62.9468 47.8457C63.4601 48.3031 63.7168 48.9237 63.7168 49.7077V54.9997H62.4848V53.5297H62.2748L62.4848 53.3197C62.4848 53.8797 62.2655 54.3231 61.8268 54.6497C61.3975 54.9764 60.8235 55.1397 60.1048 55.1397ZM60.4128 54.1457C61.0101 54.1457 61.5001 53.9964 61.8828 53.6977C62.2655 53.3991 62.4568 53.0164 62.4568 52.5497V51.4577H60.1048C59.6848 51.4577 59.3535 51.5744 59.1108 51.8077C58.8681 52.0411 58.7468 52.3584 58.7468 52.7597C58.7468 53.1891 58.8915 53.5297 59.1808 53.7817C59.4795 54.0244 59.8901 54.1457 60.4128 54.1457ZM67.2253 57.5197V56.3717H69.6753C70.0673 56.3717 70.352 56.2831 70.5293 56.1057C70.716 55.9284 70.8093 55.6531 70.8093 55.2797V54.2997L70.8373 52.8997H70.5853L70.8233 52.6897C70.8233 53.2497 70.6367 53.6931 70.2633 54.0197C69.89 54.3464 69.3907 54.5097 68.7653 54.5097C67.972 54.5097 67.3467 54.2531 66.8893 53.7397C66.432 53.2171 66.2033 52.5171 66.2033 51.6397V50.0157C66.2033 49.1384 66.432 48.4431 66.8893 47.9297C67.3467 47.4164 67.972 47.1597 68.7653 47.1597C69.3907 47.1597 69.89 47.3231 70.2633 47.6497C70.6367 47.9764 70.8233 48.4197 70.8233 48.9797L70.5853 48.7697H70.8233V47.2997H72.0693V55.2797C72.0693 55.9704 71.8547 56.5164 71.4253 56.9177C71.0053 57.3191 70.4173 57.5197 69.6613 57.5197H67.2253ZM69.1433 53.4177C69.666 53.4177 70.0767 53.2544 70.3753 52.9277C70.674 52.6011 70.8233 52.1484 70.8233 51.5697V50.0997C70.8233 49.5211 70.674 49.0684 70.3753 48.7417C70.0767 48.4151 69.666 48.2517 69.1433 48.2517C68.6113 48.2517 68.196 48.4104 67.8973 48.7277C67.608 49.0451 67.4633 49.5024 67.4633 50.0997V51.5697C67.4633 52.1671 67.608 52.6244 67.8973 52.9417C68.196 53.2591 68.6113 53.4177 69.1433 53.4177ZM77.5659 55.1397C76.9592 55.1397 76.4272 55.0184 75.9699 54.7757C75.5219 54.5331 75.1719 54.1924 74.9199 53.7537C74.6772 53.3057 74.5559 52.7877 74.5559 52.1997V50.0997C74.5559 49.5024 74.6772 48.9844 74.9199 48.5457C75.1719 48.1071 75.5219 47.7664 75.9699 47.5237C76.4272 47.2811 76.9592 47.1597 77.5659 47.1597C78.1725 47.1597 78.6999 47.2811 79.1479 47.5237C79.6052 47.7664 79.9552 48.1071 80.1979 48.5457C80.4499 48.9844 80.5759 49.5024 80.5759 50.0997V51.4577H75.7879V52.1997C75.7879 52.8064 75.9419 53.2731 76.2499 53.5997C76.5579 53.9171 76.9965 54.0757 77.5659 54.0757C78.0512 54.0757 78.4432 53.9917 78.7419 53.8237C79.0405 53.6464 79.2225 53.3851 79.2879 53.0397H80.5479C80.4639 53.6837 80.1465 54.1971 79.5959 54.5797C79.0545 54.9531 78.3779 55.1397 77.5659 55.1397ZM79.3439 50.6177V50.0997C79.3439 49.4931 79.1899 49.0264 78.8819 48.6997C78.5832 48.3731 78.1445 48.2097 77.5659 48.2097C76.9965 48.2097 76.5579 48.3731 76.2499 48.6997C75.9419 49.0264 75.7879 49.4931 75.7879 50.0997V50.5057H79.4419L79.3439 50.6177ZM83.3144 54.9997V47.2997H84.5464V48.7697H84.8404L84.4344 49.6797C84.4344 48.8491 84.6117 48.2237 84.9664 47.8037C85.3304 47.3744 85.8671 47.1597 86.5764 47.1597C87.3884 47.1597 88.0324 47.4164 88.5084 47.9297C88.9937 48.4337 89.2364 49.1197 89.2364 49.9877V50.4497H87.9764V50.0997C87.9764 49.4931 87.8271 49.0311 87.5284 48.7137C87.2391 48.3871 86.8237 48.2237 86.2824 48.2237C85.7504 48.2237 85.3304 48.3871 85.0224 48.7137C84.7237 49.0404 84.5744 49.5024 84.5744 50.0997V54.9997H83.3144Z" fill="black"/>
<path d="M21.3943 40.541L20.3724 55.4319L12.9269 51.1253L21.3943 40.541Z" fill="#1A1A1A"/>
<path d="M25.3495 41.6925L23.389 57.1756L12.9211 51.1319L25.3495 41.6925Z" fill="black"/>
</svg>
